<svg xmlns="http://www.w3.org/2000/svg" width="51.632" height="44.748" viewBox="0 0 51.632 44.748" class="svg replaced-svg">
  <g id="Groupe_87" data-name="Groupe 87" transform="translate(0 0)">
    <g id="Groupe_86" data-name="Groupe 86">
      <path id="Tracé_136" data-name="Tracé 136" d="M218.5,290.133a4.94,4.94,0,0,0-5.163,5.163v.861c0,4.182,2.365,6.884,6.024,6.884s6.024-2.7,6.024-6.884V295.3a4.94,4.94,0,0,0-5.163-5.163Zm5.163,5.163v.861c0,1.552-.42,5.163-4.3,5.163s-4.3-3.611-4.3-5.163V295.3a3.225,3.225,0,0,1,3.442-3.442h1.721A3.226,3.226,0,0,1,223.659,295.3Z" transform="translate(-191.82 -264.317)" fill="#171656"></path>
      <path id="Tracé_137" data-name="Tracé 137" d="M248.545,341.333h-.009a.865.865,0,1,0,.009,0Z" transform="translate(-222.703 -310.354)" fill="#171656"></path>
      <path id="Tracé_138" data-name="Tracé 138" d="M290.928,69.269a.861.861,0,0,0,.924-.792l.86-11.173c.191-2.048,2.944-4.383,5.167-4.383H299.6c2.265,0,5.017,2.325,5.166,4.369l.861,11.187a.86.86,0,0,0,.857.794l.067,0a.861.861,0,0,0,.792-.924l-.86-11.184c-.23-3.154-4.04-5.961-6.882-5.961h-1.721c-3.132,0-6.6,3-6.882,5.957l-.861,11.187A.861.861,0,0,0,290.928,69.269Z" transform="translate(-260.876 -49.479)" fill="#171656"></path>
      <path id="Tracé_139" data-name="Tracé 139" d="M329.385,102.989a.86.86,0,0,0-1.632,0,2.9,2.9,0,0,1-2.625,1.993.86.86,0,0,0-.861.861v3.442c0,2.874,1.964,6.884,5.163,6.884s5.163-4.01,5.163-6.884v-3.442a.861.861,0,0,0-.861-.861C333.7,104.982,330.033,104.927,329.385,102.989Zm3.487,6.3c0,2.339-1.535,5.163-3.442,5.163s-3.442-2.824-3.442-5.163V106.6a4.675,4.675,0,0,0,2.647-1.649,7.273,7.273,0,0,0,4.237,1.7v2.635Z" transform="translate(-291.567 -95.516)" fill="#171656"></path>
      <path id="Tracé_140" data-name="Tracé 140" d="M162.995,104.122h.86a.861.861,0,1,0,0-1.721h-.86a.861.861,0,1,0,0,1.721Z" transform="translate(-145.784 -95.517)" fill="#171656"></path>
      <path id="Tracé_141" data-name="Tracé 141" d="M282.678,343.055a.861.861,0,1,0,0-1.721h-.009a.861.861,0,0,0,.009,1.721Z" transform="translate(-253.394 -310.355)" fill="#171656"></path>
      <path id="Tracé_142" data-name="Tracé 142" d="M77.693,44.248a10.215,10.215,0,0,0,.918,3.179c.78,1.56,1.959,3.918,5.933,3.918s5.153-2.358,5.933-3.918a10.231,10.231,0,0,0,.919-3.179,1.722,1.722,0,0,0,.893-1.509V41.018a1.721,1.721,0,0,0-.861-1.49V39.3a5.169,5.169,0,0,0-5.163-5.163H82.824A5.168,5.168,0,0,0,77.661,39.3v.231a1.719,1.719,0,0,0-.861,1.49v1.721A1.723,1.723,0,0,0,77.693,44.248Zm.828-3.23a.861.861,0,0,0,.861-.861V39.3a3.446,3.446,0,0,1,3.442-3.442h3.442A3.446,3.446,0,0,1,89.708,39.3v.861a.86.86,0,0,0,.861.861v1.721a.86.86,0,0,0-.861.861,8.062,8.062,0,0,1-.77,3.057c-.9,1.792-1.686,2.966-4.393,2.966s-3.5-1.175-4.393-2.965a8.058,8.058,0,0,1-.77-3.058.861.861,0,0,0-.861-.861V41.018Z" transform="translate(-69.055 -34.134)" fill="#171656"></path>
      <path id="Tracé_143" data-name="Tracé 143" d="M198.921,426.666a.862.862,0,0,0-.478.145l-2.1,1.4-2.1-1.4a.863.863,0,0,0-.477-.145c-4.978,0-6.024,2.34-6.024,4.3a.861.861,0,1,0,1.721,0c0-.692,0-2.506,4.045-2.58l2.361,1.575a.86.86,0,0,0,.954,0l2.362-1.575c4.045.074,4.045,1.888,4.045,2.58a.86.86,0,1,0,1.721,0C204.945,429.006,203.9,426.666,198.921,426.666Z" transform="translate(-168.802 -387.081)" fill="#171656"></path>
      <path id="Tracé_144" data-name="Tracé 144" d="M444.651,324.267h0a.86.86,0,0,0-.861.857l-.053,13.769a.86.86,0,0,0,.857.864h0a.86.86,0,0,0,.86-.857l.053-13.769A.86.86,0,0,0,444.651,324.267Z" transform="translate(-398.986 -295.009)" fill="#171656"></path>
      <path id="Tracé_145" data-name="Tracé 145" d="M120.328,104.122h.861a.861.861,0,0,0,0-1.721h-.861a.861.861,0,1,0,0,1.721Z" transform="translate(-107.419 -95.517)" fill="#171656"></path>
      <path id="Tracé_146" data-name="Tracé 146" d="M180.9,227.3l.72-3.594c4.345.1,7.472,1.181,8.431,2.941a.86.86,0,1,0,1.511-.823c-1.35-2.482-5.111-3.847-10.59-3.847a.885.885,0,0,0-.9.691l-.86,4.292a.86.86,0,0,0,.675,1.013.827.827,0,0,0,.17.017A.861.861,0,0,0,180.9,227.3Z" transform="translate(-161.124 -203.034)" fill="#171656"></path>
      <path id="Tracé_147" data-name="Tracé 147" d="M341.09,241.608a10.1,10.1,0,0,0-7.33-2.572.87.87,0,0,0-.886.858c0,.176-.061,4.295-3.442,4.295s-3.441-4.119-3.442-4.294a.861.861,0,0,0-1.721,0c0,1.924.929,5.429,4.3,5.943v4.372a.861.861,0,0,0,1.721,0v-4.373c2.9-.443,4-3.1,4.244-5.061a8,8,0,0,1,5.337,2.048,5.518,5.518,0,0,1,1.606,3.944v13.769a.861.861,0,0,0,1.721,0V246.77A7.233,7.233,0,0,0,341.09,241.608Z" transform="translate(-291.568 -218.373)" fill="#171656"></path>
      <path id="Tracé_148" data-name="Tracé 148" d="M138.254,221.867a1.716,1.716,0,0,0-.861,3.2v6.263a.86.86,0,1,0,1.721,0V225.07a1.716,1.716,0,0,0-.86-3.2Z" transform="translate(-122.764 -202.935)" fill="#171656"></path>
      <path id="Tracé_149" data-name="Tracé 149" d="M52.061,324.267a.86.86,0,0,0-.861.861V338.9a.861.861,0,1,0,1.721,0V325.128A.861.861,0,0,0,52.061,324.267Z" transform="translate(-46.037 -295.009)" fill="#171656"></path>
      <path id="Tracé_150" data-name="Tracé 150" d="M12.029,222.662a.907.907,0,0,0-.9-.685c-4.52,0-7.978.968-9.741,2.727A4.509,4.509,0,0,0,0,227.99V245.2a.861.861,0,1,0,1.721,0V227.99a2.808,2.808,0,0,1,.882-2.068c1.341-1.338,4.192-2.134,7.885-2.217l4.159,19.95a.86.86,0,1,0,1.684-.351Z" transform="translate(0 -203.034)" fill="#171656"></path>
    </g>
  </g>
</svg>